<svg width="48" height="48" viewBox="0 0 48 48" fill="none" xmlns="http://www.w3.org/2000/svg"><path d="M2.95166 36.4644V36.5326H3.04572V36.4644H2.95166Z" fill="#272727"></path><path d="M2.95166 34.9177V34.986H3.04572V34.9177H2.95166Z" fill="#272727"></path><path d="M43.6654 19.2927H10.5889C10.3016 19.2927 10.0684 19.0582 10.0684 18.7708V8.19374C10.0684 4.91843 7.40379 2.25515 4.12849 2.25515H3.04617V2.25H1.5V39.4199H3.04617V39.4148H22.314C22.8397 42.8911 25.8483 45.5634 29.4702 45.5634C33.0908 45.5634 36.0994 42.8911 36.6251 39.4148H40.2058C41.2933 39.4148 42.3331 39.0798 43.2157 38.4458L44.9113 37.2282C45.906 36.5131 46.5 35.3561 46.5 34.132V22.1273C46.5 20.5644 45.2283 19.2927 43.6654 19.2927ZM3.04617 7.01994H4.39263C4.64001 7.01994 4.8423 7.22094 4.8423 7.46961V19.3455H3.04617V7.01994ZM2.95211 34.918H3.04617V20.8917H4.8423V34.918H3.04617V34.9863H2.95211V34.918ZM22.2457 37.8686H3.04617V36.5325H2.95211V36.4642H3.04617V36.5325H22.457C22.3462 36.9641 22.2741 37.4099 22.2457 37.8686ZM35.057 39.4148C34.5468 42.033 32.2353 44.0172 29.4702 44.0172C26.7039 44.0172 24.3923 42.033 23.8821 39.4148C23.8138 39.0617 23.7777 38.6984 23.7777 38.326C23.7777 38.1714 23.7842 38.0194 23.7958 37.8686C23.8331 37.4048 23.9259 36.9577 24.0664 36.5325C24.2532 35.9733 24.5225 35.4527 24.8626 34.9863C25.8986 33.5612 27.5775 32.6335 29.4702 32.6335C31.3617 32.6335 33.0406 33.5612 34.0765 34.9863C34.4154 35.4527 34.686 35.9733 34.8715 36.5325C35.0132 36.9577 35.106 37.4048 35.1434 37.8686C35.155 38.0194 35.1614 38.1714 35.1614 38.326C35.1614 38.6984 35.1253 39.0617 35.057 39.4148ZM42.3137 37.1896C41.6966 37.6341 40.9673 37.8686 40.2058 37.8686H36.6934C36.6651 37.4099 36.5929 36.9641 36.4821 36.5325H43.2286L42.3137 37.1896ZM44.9538 34.132C44.9538 34.4284 44.8958 34.7183 44.785 34.9863H35.8894C34.6808 32.6709 32.2572 31.0874 29.4702 31.0874C26.6832 31.0874 24.2583 32.6709 23.0497 34.9863H6.38847V29.8363H40.1143C40.4686 31.3451 41.8267 32.4712 43.4424 32.4712H44.9538V34.132ZM44.9538 30.925H43.4424C42.4091 30.925 41.5677 30.0836 41.5677 29.0503C41.5677 28.0156 42.4091 27.1756 43.4424 27.1756H44.9538V30.925ZM44.9538 25.6294H43.4424C41.8177 25.6294 40.4532 26.7684 40.1079 28.2901H6.38847V7.46961C6.38847 6.36926 5.49298 5.47377 4.39263 5.47377H3.04617V3.80132H4.12849C6.55082 3.80132 8.52219 5.7714 8.52219 8.19374V18.7708C8.52219 19.9111 9.4486 20.8388 10.5889 20.8388H43.6654C44.3753 20.8388 44.9538 21.4161 44.9538 22.1273V25.6294Z" fill="#272727"></path><path d="M3.04572 34.9177H2.95166V34.986H3.04572V34.9177Z" fill="#272727"></path><path d="M3.04572 36.4644H2.95166V36.5326H3.04572V36.4644Z" fill="#272727"></path><path d="M44.9545 22.1273V25.6294H43.4431C41.8184 25.6294 40.4539 26.7684 40.1086 28.2901H10.5896V20.8389H43.6661C44.376 20.8389 44.9545 21.4161 44.9545 22.1273Z" fill="#3EBF9F"></path><path d="M44.9545 32.4714V34.1322C44.9545 34.4286 44.8965 34.7185 44.7857 34.9865H35.8901C34.6815 32.6711 32.2579 31.0875 29.4709 31.0875C26.6839 31.0875 24.259 32.6711 23.0504 34.9865H10.5896V29.8364H40.115C40.4693 31.3452 41.8274 32.4714 43.4431 32.4714H44.9545Z" fill="#3EBF9F"></path><path d="M22.4577 36.5322C22.3469 36.9639 22.2748 37.4097 22.2464 37.8684H10.5896V36.5322H22.4577Z" fill="#3EBF9F"></path><path d="M43.2284 36.5322L42.3136 37.1894C41.6964 37.6339 40.9671 37.8684 40.2056 37.8684H36.6932C36.6649 37.4097 36.5927 36.9639 36.4819 36.5322H43.2284Z" fill="#3EBF9F"></path><path d="M33.1654 37.8691C33.1075 37.3898 32.9567 36.9389 32.7325 36.533C32.3653 35.8668 31.801 35.3257 31.1181 34.9868C30.6207 34.7407 30.0615 34.6016 29.4701 34.6016C28.8787 34.6016 28.3182 34.7394 27.8221 34.9868C27.138 35.3257 26.5736 35.8668 26.2064 36.533C25.9822 36.9389 25.8314 37.3898 25.7735 37.8691C25.7541 38.0186 25.7451 38.1719 25.7451 38.3265C25.7451 38.7054 25.8018 39.0713 25.9075 39.4153C26.3739 40.9383 27.7951 42.0502 29.4701 42.0502C31.1438 42.0502 32.565 40.9383 33.0314 39.4153C33.1371 39.0713 33.1938 38.7054 33.1938 38.3265C33.1938 38.1719 33.1848 38.0186 33.1654 37.8691ZM31.3551 39.4153C30.9789 40.066 30.2741 40.5041 29.4701 40.5041C28.6648 40.5041 27.9613 40.066 27.5851 39.4153C27.3982 39.0958 27.2913 38.7234 27.2913 38.3265C27.2913 38.1693 27.308 38.016 27.339 37.8691C27.4575 37.3177 27.7848 36.8435 28.2345 36.533C28.5849 36.2908 29.0114 36.1477 29.4701 36.1477C29.9288 36.1477 30.354 36.2908 30.7057 36.533C31.1541 36.8435 31.4814 37.3177 31.6 37.8691C31.6309 38.016 31.6476 38.1693 31.6476 38.3265C31.6476 38.7234 31.542 39.0958 31.3551 39.4153Z" fill="#272727"></path></svg>