<svg width="48" height="48" viewBox="0 0 48 48" fill="none" xmlns="http://www.w3.org/2000/svg"><path d="M38.4948 21H9.50537L12.4679 10.6322C12.7426 9.67125 13.6322 9 14.6316 9H33.3685C34.3679 9 35.2576 9.67125 35.5323 10.6322L38.4948 21Z" fill="#3EBF9F"></path><path d="M9.75 31.5C7.68281 31.5 6 29.8172 6 27.75C6 25.6828 7.68281 24 9.75 24C11.8172 24 13.5 25.6828 13.5 27.75C13.5 29.8172 11.8172 31.5 9.75 31.5Z" fill="#3EBF9F"></path><path d="M38.25 31.5C36.1828 31.5 34.5 29.8172 34.5 27.75C34.5 25.6828 36.1828 24 38.25 24C40.3172 24 42 25.6828 42 27.75C42 29.8172 40.3172 31.5 38.25 31.5Z" fill="#3EBF9F"></path><path d="M6.75 33H12.75V34.5H6.75V33Z" fill="#0D0D0D"></path><path d="M35.25 33H41.25V34.5H35.25V33Z" fill="#0D0D0D"></path><path d="M42.75 21C45.2316 21 47.25 18.9816 47.25 16.5C47.25 15.6731 46.5769 15 45.75 15H40.0078L38.4309 9.74063C37.7597 7.50375 35.7384 6 33.4022 6H14.5978C12.2616 6 10.2403 7.50375 9.56906 9.74156L7.99219 15H2.25C1.42313 15 0.75 15.6731 0.75 16.5C0.75 18.9816 2.76844 21 5.25 21H6.19219L6.09656 21.3178C4.21125 22.8319 3 25.1503 3 27.75V35.25C3 36.4903 4.00969 37.5 5.25 37.5H6.75V39.75C6.75 40.9903 7.75969 42 9 42H13.5C14.7403 42 15.75 40.9903 15.75 39.75V37.5H32.25V39.75C32.25 40.9903 33.2597 42 34.5 42H39C40.2403 42 41.25 40.9903 41.25 39.75V37.5H42.75C43.9903 37.5 45 36.4903 45 35.25V27.75C45 25.1503 43.7887 22.8319 41.9034 21.3178L41.8078 21H42.75ZM45.75 16.5C45.75 18.1547 44.4047 19.5 42.75 19.5H41.3578L40.4578 16.5H45.75ZM11.0063 10.1719C11.4853 8.57344 12.9291 7.5 14.5978 7.5H33.4022C35.0709 7.5 36.5138 8.57437 36.9938 10.1719L39.9909 20.1647C38.9953 19.7381 37.9003 19.4991 36.75 19.4991H11.25C10.0997 19.4991 9.00469 19.7372 8.00906 20.1647L11.0063 10.1719ZM17.25 36H15.75V33.75C15.75 32.7741 16.3791 31.9491 17.25 31.6378V36ZM18.75 31.5H20.25V36H18.75V31.5ZM21.75 31.5H23.25V36H21.75V31.5ZM26.25 21H27.75V24H26.25V21ZM24.75 24H16.1044C15.2466 24 14.4759 23.5238 14.0925 22.7559L13.2141 21H24.75V24ZM30.75 21V24H29.25V21H30.75ZM27.75 25.5V30H26.25V25.5H27.75ZM24.75 31.5H26.25V36H24.75V31.5ZM27.75 31.5H29.25V36H27.75V31.5ZM30.75 31.6378C31.6209 31.9481 32.25 32.7731 32.25 33.75V36H30.75V31.6378ZM30 30H29.25V25.5H30.75V30.0759C30.5072 30.0262 30.2559 30 30 30ZM32.25 21H34.7859L33.9075 22.7559C33.5775 23.4159 32.9616 23.8584 32.2491 23.97V21H32.25ZM5.25 19.5C3.59531 19.5 2.25 18.1547 2.25 16.5H7.54219L6.64219 19.5H5.25ZM4.5 35.25V27.75C4.5 24.0281 7.52812 21 11.25 21H11.5359L12.75 23.4272C13.3894 24.7059 14.6747 25.5 16.1044 25.5H24.75V30H18C15.9328 30 14.25 31.6828 14.25 33.75V36H5.25C4.83656 36 4.5 35.6634 4.5 35.25ZM14.25 39.75C14.25 40.1634 13.9134 40.5 13.5 40.5H9C8.58656 40.5 8.25 40.1634 8.25 39.75V37.5H14.25V39.75ZM39.75 39.75C39.75 40.1634 39.4134 40.5 39 40.5H34.5C34.0866 40.5 33.75 40.1634 33.75 39.75V37.5H39.75V39.75ZM43.5 27.75V35.25C43.5 35.6634 43.1634 36 42.75 36H33.75V33.75C33.75 32.5294 33.1556 31.4541 32.25 30.7697V25.4766C33.5344 25.3566 34.6641 24.6 35.25 23.4281L36.4641 21H36.75C40.4719 21 43.5 24.0281 43.5 27.75Z" fill="#0D0D0D"></path><path d="M25.7194 16.7203L30.2194 12.2203L31.2797 13.2806L26.7797 17.7806L25.7194 16.7203Z" fill="#0D0D0D"></path><path d="M21.2194 16.7203L25.7194 12.2203L26.7797 13.2806L22.2797 17.7806L21.2194 16.7203Z" fill="#0D0D0D"></path><path d="M16.7194 16.7194L21.2194 12.2194L22.2806 13.2797L17.7806 17.7797L16.7194 16.7194Z" fill="#0D0D0D"></path></svg>