<svg width="48" height="48" viewBox="0 0 48 48" fill="none" xmlns="http://www.w3.org/2000/svg"><path d="M24 46.501C11.5932 46.501 1.5 36.4068 1.5 24.001C1.5 11.5951 11.5932 1.50098 24 1.50098C36.4068 1.50098 46.5 11.5951 46.5 24.001C46.5 36.4068 36.4077 46.501 24 46.501ZM24 2.95259C12.3944 2.95259 2.95161 12.3944 2.95161 24.001C2.95161 35.6075 12.3944 45.0494 24 45.0494C35.6056 45.0494 45.0484 35.6075 45.0484 24.001C45.0484 12.3944 35.6056 2.95259 24 2.95259Z" fill="#0D0D0D"></path><path d="M28.8022 29.8074H19.1979L17.514 22.5565C17.4814 22.3824 17.4678 22.2372 17.4678 22.092C17.4678 20.7438 18.5656 19.647 19.9129 19.647H28.0863C29.4345 19.647 30.5314 20.7438 30.5314 22.092C30.5314 22.2381 30.5178 22.3833 30.4924 22.5221L28.8022 29.8074ZM20.351 28.3557H27.6499L29.0734 22.2281C29.0752 22.2073 29.0807 22.1492 29.0807 22.0911C29.0807 21.5431 28.6352 21.0977 28.0872 21.0977H19.9137C19.3658 21.0977 18.9203 21.5431 18.9203 22.0911C18.9203 22.1492 18.9248 22.2073 18.9357 22.2626L20.351 28.3557Z" fill="#0D0D0D"></path><path d="M40.6644 18.9204H31.4449C32.2269 19.7487 32.7105 20.8628 32.7105 22.0913C32.7105 22.3952 32.6806 22.6991 32.6207 22.9976L31.0557 29.7376C30.7499 31.0532 29.5777 31.984 28.2277 31.984H19.7748C18.4248 31.984 17.2526 31.0523 16.9469 29.7376L15.3818 22.9976C15.322 22.6991 15.292 22.3961 15.292 22.0913C15.292 20.8619 15.7747 19.7487 16.5577 18.9204H7.33812C6.84911 20.5281 6.58325 22.2337 6.58325 24.0011C6.58325 25.7684 6.84911 27.474 7.33812 29.0817H10.5534C15.3673 29.0817 19.3992 32.6908 19.9308 37.4747L20.3255 41.0276C21.5113 41.2834 22.7406 41.4204 24.0026 41.4204C25.2646 41.4204 26.494 41.2834 27.6797 41.0276L28.0744 37.4747C28.6061 32.6908 32.6379 29.0817 37.4518 29.0817H40.6671C41.1562 27.474 41.422 25.7684 41.422 24.0011C41.422 22.2337 41.1535 20.5281 40.6644 18.9204Z" fill="#3EBF9F"></path><path d="M28.226 32.7107H19.7749C18.0774 32.7107 16.623 31.5558 16.2402 29.9028L14.6742 23.1627C14.5998 22.7989 14.5645 22.4451 14.5645 22.0922C14.5645 19.1436 16.9642 16.7439 19.9128 16.7439H28.0862C31.0348 16.7439 33.4345 19.1436 33.4345 22.0922C33.4345 22.4451 33.3991 22.7989 33.3302 23.1419L31.7597 29.9028C31.3768 31.5558 29.9234 32.7107 28.226 32.7107ZM19.9136 18.1946C17.7643 18.1946 16.017 19.9429 16.017 22.0913C16.017 22.3489 16.0424 22.6048 16.0923 22.8543L17.6528 29.5743C17.8832 30.566 18.756 31.2591 19.7749 31.2591H28.2268C29.2448 31.2591 30.1176 30.566 30.348 29.5743L31.9131 22.8334C31.9584 22.6057 31.9838 22.3489 31.9838 22.0913C31.9838 19.9429 30.2355 18.1946 28.0871 18.1946H19.9136Z" fill="#0D0D0D"></path><path d="M37.7902 26.1783H36.3386C35.5384 26.1783 34.887 25.5269 34.887 24.7267V23.2751C34.887 22.4749 35.5384 21.8235 36.3386 21.8235H37.7902C38.5904 21.8235 39.2418 22.4749 39.2418 23.2751V24.7267C39.2418 25.5269 38.5913 26.1783 37.7902 26.1783ZM36.3386 23.2751V24.7267H37.7911L37.7902 23.2751H36.3386Z" fill="#0D0D0D"></path><path d="M10.2097 21.8235H11.6613V23.2751H10.2097V21.8235Z" fill="#0D0D0D"></path><path d="M10.2097 24.7268H11.6613V26.1784H10.2097V24.7268Z" fill="#0D0D0D"></path><path d="M11.6611 23.2751H13.1127V24.7268H11.6611V23.2751Z" fill="#0D0D0D"></path><path d="M8.75806 23.2751H10.2097V24.7268H8.75806V23.2751Z" fill="#0D0D0D"></path><path d="M23.9999 26.9042C22.7996 26.9042 21.8225 25.927 21.8225 24.7267C21.8225 23.5264 22.7996 22.5493 23.9999 22.5493C25.2002 22.5493 26.1773 23.5264 26.1773 24.7267C26.1773 25.927 25.2002 26.9042 23.9999 26.9042ZM23.9999 24.0009C23.5998 24.0009 23.2741 24.3266 23.2741 24.7267C23.2741 25.1268 23.5998 25.4525 23.9999 25.4525C24.4 25.4525 24.7257 25.1268 24.7257 24.7267C24.7257 24.3266 24.4009 24.0009 23.9999 24.0009Z" fill="#0D0D0D"></path><path d="M23.9999 42.1462C13.9947 42.1462 5.85474 34.0063 5.85474 24.0011C5.85474 19.4339 7.55949 15.07 10.6532 11.7104L11.7211 12.6939C8.87411 15.7849 7.30635 19.8005 7.30635 24.0011C7.30635 33.2061 14.7949 40.6946 23.9999 40.6946C28.2014 40.6946 32.2169 39.126 35.3062 36.2799L36.2896 37.3477C32.9318 40.4415 28.567 42.1462 23.9999 42.1462Z" fill="#0D0D0D"></path><path d="M37.3466 36.2915L36.2787 35.308C39.1257 32.217 40.6935 28.2015 40.6935 24.0009C40.6935 14.7958 33.205 7.30733 23.9999 7.30733C19.7984 7.30733 15.7829 8.87598 12.6937 11.722L11.7102 10.6542C15.068 7.56045 19.4337 5.85571 23.9999 5.85571C34.0052 5.85571 42.1451 13.9956 42.1451 24.0009C42.1451 28.568 40.4403 32.9319 37.3466 36.2915Z" fill="#0D0D0D"></path></svg>