<svg width="48" height="48" viewBox="0 0 48 48" fill="none" xmlns="http://www.w3.org/2000/svg"><path d="M22.2051 38.8404C18.9041 38.8404 16.2186 36.1778 16.2186 32.905C16.2186 29.6321 18.9041 26.9695 22.2051 26.9695C25.506 26.9695 28.1915 29.6321 28.1915 32.905C28.1915 36.1778 25.506 38.8404 22.2051 38.8404Z" fill="#3EBF9F"></path><path d="M27.4432 25.4859H16.967C15.7294 25.4859 14.722 24.4871 14.722 23.2601V19.5087C14.722 18.9355 14.8586 18.3624 15.1168 17.8495L16.967 14.1816C17.6049 12.9166 18.8873 12.131 20.3137 12.131H27.4432C28.6807 12.131 29.6881 13.1299 29.6881 14.3568V23.2601C29.6881 24.4871 28.6807 25.4859 27.4432 25.4859Z" fill="#3EBF9F"></path><path d="M10.9806 35.1309H12.4772V36.6148H10.9806V35.1309Z" fill="#0D0D0D"></path><path d="M22.2052 29.9374C21.7665 29.9374 21.3343 30.0367 20.9209 30.2324L21.5654 31.5725C22.5878 31.0875 23.7027 31.8748 23.7027 32.9061C23.7027 33.1185 23.6522 33.3318 23.5512 33.5405L24.9028 34.1795C25.1002 33.7705 25.2003 33.3411 25.2003 32.9061C25.1984 31.2683 23.8561 29.9374 22.2052 29.9374Z" fill="#0D0D0D"></path><path d="M20.7085 32.905C20.7085 32.6926 20.759 32.4793 20.86 32.2706L19.5084 31.6317C19.311 32.0406 19.2109 32.47 19.2109 32.905C19.2109 34.5419 20.5532 35.8727 22.2042 35.8727C22.6428 35.8727 23.075 35.7735 23.4884 35.5778L22.8439 34.2377C21.8244 34.7246 20.7085 33.9354 20.7085 32.905Z" fill="#0D0D0D"></path><path d="M43.8507 6.56081L30.2746 1.17621C29.9818 1.06028 29.6732 1.00093 29.357 1.00093C28.3412 1.00093 27.4413 1.60468 27.0653 2.53951L26.1243 4.87105C26.0074 5.16133 25.9476 5.46738 25.9476 5.78085C25.9476 6.28444 26.0991 6.75927 26.3694 7.15435L24.1881 12.13H25.8203L26.3666 10.8844L28.6499 11.8378L29.2307 10.4699L26.9624 9.52299L27.5901 8.09106L40.6676 13.2772L39.938 14.941L30.6254 11.0532L30.0445 12.4212L39.3413 16.3015L38.606 17.9764L29.6769 14.2491C29.6788 14.2853 29.6881 14.3196 29.6881 14.3558V15.8647L38.0093 19.3379L37.2741 21.0137L29.6872 17.8466V18.0664H21.4559C20.2184 18.0664 19.211 19.0652 19.211 20.2922C19.211 21.5192 20.2184 22.518 21.4559 22.518H29.6872V22.9622L31.8657 23.872C31.4466 24.3589 31.109 24.9163 30.8648 25.5201L29.0774 24.7744C28.6677 25.2094 28.0877 25.4857 27.4414 25.4857H26.5556C26.246 26.3473 25.4228 26.9696 24.4481 26.9696H19.9583C18.9846 26.9696 18.1615 26.3473 17.8509 25.4857H16.9651C16.7266 25.4857 16.4993 25.4384 16.2832 25.3698C16.2982 25.4486 16.3104 25.5284 16.3291 25.6063L12.7877 27.0837L12.0226 25.3383L14.9026 24.1363C14.7857 23.8664 14.7202 23.5697 14.7202 23.259V22.6005L11.4267 23.9759L10.7243 22.3742L14.7212 20.7049V19.5076C14.7212 19.3666 14.7305 19.2247 14.7464 19.0847L10.1275 21.0128L9.39228 19.3369L15.6911 16.7077L16.72 14.6683L8.79643 17.9755L8.06124 16.3006L21.0368 10.8835L21.5831 12.129H23.2153L21.0331 7.15343C21.3034 6.75834 21.4559 6.28351 21.4559 5.77992C21.4559 5.46646 21.396 5.1604 21.2791 4.87012L20.3381 2.5386C19.9611 1.60376 19.0603 1 18.0455 1C17.7293 1 17.4207 1.05936 17.1279 1.17528L3.55269 6.55989C2.6089 6.93364 2 7.82674 2 8.83299C2 9.14646 2.05983 9.4525 2.17675 9.74278L3.11775 12.0743C3.47413 12.9581 4.29913 13.5396 5.24574 13.6009L12.0843 29.1935H10.2322C8.99474 29.1935 7.98734 30.1924 7.98734 31.4194C7.98734 32.2373 8.44008 32.9459 9.10514 33.3326C9.02095 33.4189 8.93861 33.5051 8.86284 33.5997C8.12389 34.5142 7.84703 35.6948 8.10239 36.8392L10.38 47H34.0199L37.2684 33.5793C40.1691 33.1694 42.4093 30.6978 42.4093 27.7097C42.4093 25.1324 40.7396 22.9418 38.4189 22.1248L42.1567 13.6009C43.1033 13.5387 43.9283 12.9581 44.2847 12.0743L45.2257 9.74278C45.3426 9.45343 45.4025 9.14645 45.4025 8.83391C45.4025 7.82766 44.7936 6.93549 43.8507 6.56081ZM6.73673 13.2781L16.4974 9.40799L15.9408 8.02984L5.77143 12.0623C5.28784 12.2552 4.70227 12.0075 4.50771 11.5244L3.56676 9.1919C3.51999 9.07969 3.49752 8.95911 3.49752 8.83484C3.49752 8.4379 3.73792 8.08642 4.10926 7.93896L17.6863 2.55343C18.1708 2.36238 18.7554 2.60815 18.95 3.09134L19.891 5.4238C19.9378 5.53694 19.9602 5.65751 19.9602 5.78178C19.9602 6.17872 19.7198 6.5302 19.3484 6.67766L17.429 7.43908L17.9847 8.81629L19.8134 8.09106L20.441 9.52391L7.46539 14.941L6.73673 13.2781ZM29.6881 21.3522V21.0341H21.4568C21.0443 21.0341 20.7085 20.7012 20.7085 20.2922C20.7085 19.8832 21.0443 19.5502 21.4568 19.5502H29.6881V19.4575L35.4472 21.8623C34.5914 22.0023 33.7945 22.3167 33.1014 22.7767L29.6881 21.3522ZM37.1553 27.6902L32.8394 45.518H11.5811L9.56438 36.5202C9.40723 35.8172 9.57749 35.0929 10.0312 34.5309C10.4857 33.9698 11.162 33.647 11.8879 33.647C12.8513 33.647 13.7147 34.2174 14.086 35.0993L17.2167 42.5502H21.5952C21.9048 43.4118 22.728 44.0341 23.7027 44.0341C24.9402 44.0341 25.9476 43.0353 25.9476 41.8083C25.9476 41.7165 25.9307 41.6275 25.9195 41.5394L28.5264 40.2465L27.8567 38.9194L25.2563 40.2094C24.8532 39.8236 24.3069 39.5834 23.7027 39.5834C22.7289 39.5834 21.9058 40.2057 21.5952 41.0673H18.2148L15.4676 34.529C14.8633 33.0915 13.4593 32.1641 11.8879 32.1641H10.2322C9.81975 32.1641 9.48395 31.8311 9.48395 31.4221C9.48395 31.0131 9.81975 30.6802 10.2322 30.6802H16.6592C16.88 30.1414 17.1774 29.6434 17.5394 29.1963H13.7156L13.3873 28.446L16.9698 26.9511C17.6526 27.8581 18.7339 28.4544 19.9602 28.4544H24.45C26.0935 28.4544 27.4788 27.3906 27.9792 25.9253L30.4888 26.9733C30.458 27.2163 30.4364 27.4621 30.4364 27.7125C30.4364 28.2198 30.5038 28.7169 30.6282 29.1963H26.8708C27.2337 29.6434 27.5302 30.1414 27.751 30.6802H31.2484C31.587 31.2608 32.021 31.7866 32.5448 32.229L31.4186 35.1318H27.751C27.5302 35.6706 27.2328 36.1687 26.8708 36.6157H32.4475L36.045 27.3406C36.132 27.1152 36.3452 26.9705 36.5893 26.9705C36.9102 26.9705 37.1712 27.2293 37.1712 27.5567C37.1712 27.6003 37.1665 27.6457 37.1553 27.6902ZM22.9534 41.8083C22.9534 41.3993 23.2892 41.0664 23.7017 41.0664C24.1142 41.0664 24.45 41.3993 24.45 41.8083C24.45 42.2173 24.1142 42.5502 23.7017 42.5502C23.2892 42.5502 22.9534 42.2173 22.9534 41.8083ZM40.9127 27.7115C40.9127 29.7426 39.5321 31.4565 37.6538 31.9888L38.6098 28.0371C38.6481 27.8794 38.6678 27.7171 38.6678 27.5465C38.6678 26.4104 37.7342 25.4857 36.5893 25.4857C35.7344 25.4857 34.9552 26.0171 34.6484 26.8073L33.1275 30.7294C32.3689 29.916 31.933 28.8439 31.933 27.7115C31.933 25.2567 33.9469 23.2599 36.4229 23.2599C38.8988 23.2599 40.9127 25.2567 40.9127 27.7115ZM43.8367 9.19283L42.8957 11.5253C42.7011 12.0085 42.1174 12.2561 41.632 12.0623L28.055 6.67674C27.6836 6.53021 27.4432 6.17872 27.4432 5.78178C27.4432 5.65751 27.4666 5.53787 27.5125 5.4238L28.4534 3.09134C28.6021 2.72315 28.9567 2.4848 29.357 2.4848C29.4823 2.4848 29.603 2.50798 29.718 2.55343L43.2951 7.93803C43.6665 8.08549 43.9069 8.43697 43.9069 8.83391C43.9059 8.95818 43.8835 9.07876 43.8367 9.19283Z" fill="#0D0D0D"></path><path d="M25.1984 15.0987H26.695V16.5826H25.1984V15.0987Z" fill="#0D0D0D"></path><path d="M22.2051 15.0987H23.7017V16.5826H22.2051V15.0987Z" fill="#0D0D0D"></path><path d="M19.2119 15.0987H20.7085V16.5826H19.2119V15.0987Z" fill="#0D0D0D"></path></svg>