<svg width="64" height="64" viewBox="0 0 64 64" fill="none" xmlns="http://www.w3.org/2000/svg" class="jss287 jss288"><path d="M46.88 42.6035L44.8167 45.8203H2.54199V42.6035H46.88Z" fill="#3EBF9F"></path><path d="M16.0253 33.8516L15.581 37.0683H6.48828V33.8516H16.0253Z" fill="#3EBF9F"></path><path d="M2 4.6928V49.5727C2 51.0571 3.20839 52.2655 4.6928 52.2655H54.9583C56.4427 52.2655 57.6511 51.0571 57.6511 49.5727V35.9158C57.6511 31.7913 56.2699 27.7185 53.7612 24.4456L42.2102 9.38163C38.6669 4.75899 33.0749 2 27.2506 2H4.6928C3.20839 2 2 3.20839 2 4.6928ZM3.7952 45.0847V43.2896H55.8559V45.0847V46.8799V49.5727C55.8559 50.0675 55.4531 50.4703 54.9583 50.4703H4.6928C4.198 50.4703 3.7952 50.0675 3.7952 49.5727V46.8799V45.0847ZM3.7952 4.6928C3.7952 4.198 4.198 3.7952 4.6928 3.7952H27.2506C32.5206 3.7952 37.5797 6.29164 40.7852 10.4733L52.3362 25.5384C54.606 28.4994 55.8559 32.184 55.8559 35.9158V43.2896H3.7952V4.6928Z" fill="#272727"></path><path d="M16.362 36.108V34.3128C16.362 33.3232 15.5564 32.5176 14.5668 32.5176H7.38602C6.39642 32.5176 5.59082 33.3232 5.59082 34.3128V36.108C5.59082 37.0976 6.39642 37.9032 7.38602 37.9032H14.5668C15.5564 37.9032 16.362 37.0976 16.362 36.108ZM7.38602 34.3128H9.18122V36.108H7.38602V34.3128ZM14.5668 36.108H10.9764V34.3128H14.5668V36.108Z" fill="#272727"></path><path d="M5.59082 5.58984V30.7226H45.9828C47.4672 30.7226 48.6756 29.4088 48.6756 27.7942V23.8896C48.6756 22.4636 47.732 21.272 46.4888 21.014L39.363 11.6251C36.4952 7.84618 31.9511 5.58984 27.2072 5.58984H5.59082ZM40.5972 28.7703C39.1128 28.7703 37.9044 27.4565 37.9044 25.8419V22.9135H45.9828C46.4776 22.9135 46.8804 23.3522 46.8804 23.8896V27.7942C46.8804 28.3316 46.4776 28.7703 45.9828 28.7703H40.5972ZM7.38602 7.38504H27.2072C31.3934 7.38504 35.4023 9.37547 37.9324 12.71L44.1102 20.849H36.1092V26.2346C36.1092 27.2152 36.3729 28.1353 36.8318 28.9274H7.38602V7.38504Z" fill="#272727"></path><path d="M51.9467 35.5809L59.0579 48.6185C59.6615 49.7248 59.9802 50.9736 59.9802 52.2336C59.9802 56.3951 56.5929 59.7824 52.4314 59.7824H51.462C47.3005 59.7824 43.9132 56.3951 43.9132 52.2336C43.9132 50.9758 44.2318 49.7248 44.8343 48.6185L51.9467 35.5809ZM51.9467 31.3633L50.1739 34.6137L43.0616 47.6513C42.2975 49.0538 41.8936 50.6381 41.8936 52.2336C41.8936 57.5092 46.1863 61.802 51.462 61.802H52.4314C57.707 61.802 61.9998 57.5092 61.9998 52.2336C61.9998 50.637 61.5959 49.0516 60.8306 47.6502L53.7194 34.6137L51.9467 31.3633Z" fill="#272727"></path><path id="exterior_color" d="M59.9801 52.2328C59.9801 56.3943 56.5928 59.7816 52.4313 59.7816H51.4619C47.3004 59.7816 43.9131 56.3943 43.9131 52.2328C43.9131 50.975 44.2317 49.724 44.8342 48.6177L51.9466 35.5801L59.0578 48.6177C59.6615 49.724 59.9801 50.9728 59.9801 52.2328Z" fill="#C12626"></path></svg>