<svg width="48" height="48" viewBox="0 0 48 48" fill="none" xmlns="http://www.w3.org/2000/svg"><path d="M37.7904 12.3879H32.7097V21.0976H37.7904V12.3879Z" fill="#3EBF9F"></path><path d="M16.0164 39.2429H8.7583V42.872H16.0164V39.2429Z" fill="#3EBF9F"></path><path d="M16.0164 14.5655H8.7583V10.2107H16.0164V14.5655Z" fill="#3EBF9F"></path><path d="M27.6289 14.5655H20.3708V10.2107H27.6289V14.5655Z" fill="#3EBF9F"></path><path d="M16.0164 20.3719H8.7583V16.0171H16.0164V20.3719Z" fill="#3EBF9F"></path><path d="M27.6289 20.3719H20.3708V16.0171H27.6289V20.3719Z" fill="#3EBF9F"></path><path d="M46.5 25.4525C46.5 24.5072 45.8912 23.7088 45.0484 23.4085V17.4687C45.0484 15.4672 43.4208 13.8396 41.4194 13.8396H37.7903V15.2912H41.4194C42.6197 15.2912 43.5968 16.2683 43.5968 17.4687V23.2751H42.1452V18.1945C42.1452 17.3943 41.4938 16.7428 40.6936 16.7428H37.7903V18.1945H40.6936V23.2751H39.2419V27.3523L39.6429 27.5528C41.1862 28.324 42.1452 29.8754 42.1452 31.601V33.4355H43.5968V39.9677C43.5968 41.168 42.6197 42.1452 41.4194 42.1452H33.4355V5.85484H34.8871V3.67742C34.8871 2.47712 33.91 1.5 32.7097 1.5H3.67742C2.47712 1.5 1.5 2.47712 1.5 3.67742V5.85484H2.95161V46.5H33.4355V43.5968H41.4194C43.4208 43.5968 45.0484 41.9692 45.0484 39.9677V33.4355H46.5V25.4525ZM2.95161 3.67833C2.95161 3.27823 3.27732 2.95252 3.67742 2.95252H32.7097C33.1098 2.95252 33.4355 3.27823 33.4355 3.67833V4.40413H2.95161V3.67833ZM31.9839 45.0493H4.40323V5.85575H31.9839V42.1461H31.2581C30.0578 42.1461 29.0806 41.169 29.0806 39.9687V33.303C29.9235 33.0027 30.5323 32.2043 30.5323 31.259C30.5323 30.0587 29.5551 29.0816 28.3548 29.0816C27.1545 29.0816 26.1774 30.0587 26.1774 31.259C26.1774 32.2043 26.7862 33.0027 27.629 33.303V39.9687C27.629 41.9701 29.2567 43.5977 31.2581 43.5977H31.9839V45.0493ZM27.629 31.259C27.629 30.8589 27.9547 30.5332 28.3548 30.5332C28.7549 30.5332 29.0806 30.8589 29.0806 31.259C29.0806 31.6591 28.7549 31.9848 28.3548 31.9848C27.9547 31.9848 27.629 31.6591 27.629 31.259ZM45.0484 31.9848H43.5968V31.6019C43.5968 29.4771 42.4954 27.551 40.6936 26.475V24.7276H44.3226C44.7227 24.7276 45.0484 25.0533 45.0484 25.4534V31.9848Z" fill="#0D0D0D"></path><path d="M30.5324 7.30737H5.85498V26.1783H30.5324V7.30737ZM7.30659 8.75899H17.4679V24.7267H7.30659V8.75899ZM29.0808 24.7267H18.9195V8.75899H29.0808V24.7267Z" fill="#0D0D0D"></path><path d="M10.2099 21.8235H8.7583V23.2751H10.2099V21.8235Z" fill="#0D0D0D"></path><path d="M13.1127 21.8235H11.6611V23.2751H13.1127V21.8235Z" fill="#0D0D0D"></path><path d="M16.0161 21.8235H14.5645V23.2751H16.0161V21.8235Z" fill="#0D0D0D"></path><path d="M21.8225 21.8235H20.3708V23.2751H21.8225V21.8235Z" fill="#0D0D0D"></path><path d="M24.7258 21.8235H23.2742V23.2751H24.7258V21.8235Z" fill="#0D0D0D"></path><path d="M27.6289 21.8235H26.1772V23.2751H27.6289V21.8235Z" fill="#0D0D0D"></path><path d="M5.85498 43.5976H24.7259V27.6299H5.85498V43.5976ZM23.2743 37.7912H18.9195V29.0815H23.2743V37.7912ZM7.30659 29.0815H17.4679V39.2428H23.2743V42.146H7.30659V29.0815Z" fill="#0D0D0D"></path><path d="M12.3873 30.5332C10.3859 30.5332 8.7583 32.1608 8.7583 34.1622C8.7583 36.1636 10.3859 37.7913 12.3873 37.7913C14.3887 37.7913 16.0164 36.1636 16.0164 34.1622C16.0164 32.1608 14.3878 30.5332 12.3873 30.5332ZM13.1131 36.2063V33.4364H11.6615V36.2063C10.8187 35.906 10.2099 35.1076 10.2099 34.1622C10.2099 32.9619 11.187 31.9848 12.3873 31.9848C13.5876 31.9848 14.5648 32.9619 14.5648 34.1622C14.5648 35.1076 13.9551 35.906 13.1131 36.2063Z" fill="#0D0D0D"></path><path d="M10.2099 39.2429H8.7583V40.6945H10.2099V39.2429Z" fill="#0D0D0D"></path><path d="M13.1127 39.2429H11.6611V40.6945H13.1127V39.2429Z" fill="#0D0D0D"></path><path d="M16.0161 39.2429H14.5645V40.6945H16.0161V39.2429Z" fill="#0D0D0D"></path><path d="M21.8225 30.5332H20.3708V36.3397H21.8225V30.5332Z" fill="#0D0D0D"></path></svg>