<svg width="48" height="48" viewBox="0 0 48 48" fill="none" xmlns="http://www.w3.org/2000/svg"><path d="M24 46.501C11.5932 46.501 1.5 36.4077 1.5 24.001C1.5 11.5942 11.5932 1.50098 24 1.50098C36.4068 1.50098 46.5 11.5942 46.5 24.001C46.5 36.4077 36.4068 46.501 24 46.501ZM24 5.13001C13.5947 5.13001 5.12903 13.5956 5.12903 24.001C5.12903 34.4063 13.5947 42.8719 24 42.8719C34.4053 42.8719 42.871 34.4063 42.871 24.001C42.871 13.5956 34.4044 5.13001 24 5.13001Z" fill="#3EBF9F"></path><path d="M20.3709 24.001C20.3709 26.0024 21.9985 27.6301 23.9999 27.6301C26.0013 27.6301 27.6289 26.0024 27.6289 24.001C27.6289 21.9996 26.0013 20.372 23.9999 20.372C23.8184 20.372 23.6433 20.3992 23.4691 20.4255L17.0222 14.5656H14.5635V17.0242L20.4234 23.4712C20.398 23.6445 20.3709 23.8196 20.3709 24.001ZM26.1773 24.001C26.1773 25.2013 25.2002 26.1785 23.9999 26.1785C22.7996 26.1785 21.8225 25.2013 21.8225 24.001C21.8225 22.8007 22.7996 21.8236 23.9999 21.8236C25.2002 21.8236 26.1773 22.8007 26.1773 24.001ZM16.016 16.4626V16.0181H16.4606L21.9522 21.0098C21.582 21.2638 21.2618 21.5841 21.0078 21.9543L16.016 16.4626Z" fill="#0D0D0D"></path><path d="M23.9999 4.4043C13.1944 4.4043 4.40308 13.1956 4.40308 24.0011C4.40308 34.8065 13.1944 43.5978 23.9999 43.5978C34.8053 43.5978 43.5966 34.8065 43.5966 24.0011C43.5966 13.1956 34.8053 4.4043 23.9999 4.4043ZM23.9999 42.1462C14.2378 42.1462 6.25567 34.3964 5.87281 24.7269H8.75792V23.2753H5.87281C5.94992 21.3355 6.32917 19.4711 6.9706 17.7328L9.63975 18.8388L10.1959 17.4979L7.53219 16.3937C8.3333 14.6663 9.39659 13.0841 10.674 11.7014L12.7081 13.7355L13.7342 12.7093L11.7001 10.6753C13.0828 9.39786 14.6642 8.33454 16.3925 7.53343L17.4966 10.1971L18.8375 9.64099L17.7316 6.97184C19.4699 6.33041 21.3334 5.95026 23.274 5.87405V8.75914H24.7257V5.87405C26.6654 5.95117 28.5298 6.33041 30.2681 6.97184L29.1621 9.64099L30.503 10.1971L31.6072 7.53343C33.3346 8.33454 34.9169 9.39786 36.2995 10.6753L34.2655 12.7093L35.2916 13.7355L37.3256 11.7014C38.6031 13.0841 39.6664 14.6654 40.4675 16.3937L37.8038 17.4979L38.3599 18.8388L41.0291 17.7328C41.6705 19.4711 42.0506 21.3346 42.1269 23.2753H39.2418V24.7269H42.1269C41.7431 34.3973 33.7619 42.1462 23.9999 42.1462Z" fill="#0D0D0D"></path><path d="M24.9455 33.4364H24.0001V31.9848H25.4518V30.5332H18.1937V31.9848H19.6453V33.5698C19.4067 33.6551 19.1898 33.7803 18.9966 33.9381L15.8039 30.7455L14.7778 31.7716L18.2336 35.2274C18.2109 35.3526 18.1946 35.4814 18.1946 35.6138V37.0655C18.1946 39.0669 19.8222 40.6945 21.8236 40.6945H27.1946C28.6281 40.6945 29.9291 39.8489 30.5106 38.5398L32.7107 33.5907V31.4595L26.9333 34.761L24.9455 33.4364ZM22.5485 31.9848V33.4364H21.0969V31.9848H22.5485ZM29.1833 37.95C28.834 38.7357 28.0529 39.2429 27.1928 39.2429H21.8218C20.6215 39.2429 19.6444 38.2658 19.6444 37.0655V35.6138C19.6444 35.2128 19.9692 34.888 20.3702 34.888H24.5055L26.8734 36.4667L30.8526 34.1931L29.1833 37.95Z" fill="#0D0D0D"></path><path d="M37.0646 31.9847C35.8643 31.9847 34.8872 31.0076 34.8872 29.8073C34.8872 28.607 35.8643 27.6299 37.0646 27.6299C38.2649 27.6299 39.242 28.607 39.242 29.8073C39.242 31.0076 38.2649 31.9847 37.0646 31.9847Z" fill="#3EBF9F"></path><path d="M10.9355 31.9847C9.73517 31.9847 8.75806 31.0076 8.75806 29.8073C8.75806 28.607 9.73517 27.6299 10.9355 27.6299C12.1358 27.6299 13.1129 28.607 13.1129 29.8073C13.1129 31.0076 12.1358 31.9847 10.9355 31.9847Z" fill="#3EBF9F"></path></svg>