<svg width="48" height="48" viewBox="0 0 48 48" fill="none" xmlns="http://www.w3.org/2000/svg"><path d="M17.9522 27H13.5487L12.6993 14.25H18.8025L17.9522 27Z" fill="#3EBF9F"></path><path d="M27.75 41.25C26.5097 41.25 25.5 40.2403 25.5 39C25.5 37.7597 26.5097 36.75 27.75 36.75C28.9903 36.75 30 37.7597 30 39C30 40.2403 28.9903 41.25 27.75 41.25Z" fill="#3EBF9F"></path><path d="M21.75 41.25C20.5097 41.25 19.5 40.2403 19.5 39C19.5 37.7597 20.5097 36.75 21.75 36.75C22.9903 36.75 24 37.7597 24 39C24 40.2403 22.9903 41.25 21.75 41.25Z" fill="#3EBF9F"></path><path d="M15.75 41.25C14.5097 41.25 13.5 40.2403 13.5 39C13.5 37.7597 14.5097 36.75 15.75 36.75C16.9903 36.75 18 37.7597 18 39C18 40.2403 16.9903 41.25 15.75 41.25Z" fill="#3EBF9F"></path><path d="M9.75 41.25C8.50969 41.25 7.5 40.2403 7.5 39C7.5 37.7597 8.50969 36.75 9.75 36.75C10.9903 36.75 12 37.7597 12 39C12 40.2403 10.9903 41.25 9.75 41.25Z" fill="#3EBF9F"></path><path d="M47.25 15.75V3.75004H30.75V5.22191H27.7772C27.3816 5.22191 26.9916 5.11973 26.6494 4.9266L22.7616 2.73847C22.1944 2.41972 21.5503 2.25098 20.8866 2.25098L13.2863 2.37098C12.8231 2.37098 12.3769 2.50973 11.9953 2.77223L5.05687 7.55817C4.84687 7.70255 4.66314 7.8816 4.51314 8.08879L1.18126 12.6844C0.899072 13.0735 0.75 13.5328 0.75 14.0119V14.2247C0.75 15.48 1.78128 16.501 3.04971 16.501C3.71909 16.501 4.3547 16.2132 4.79251 15.7097L8.625 11.3044C8.69906 11.2191 8.79564 11.1488 8.90158 11.1057L9.41437 10.8891C8.67749 12.0385 8.25096 13.395 8.25096 14.8303C8.25096 15.511 8.34563 16.1878 8.53313 16.8441L10.5787 24.0019H3.00188C1.76156 24.0019 0.751877 25.0116 0.751877 26.2519V42.7519C0.751877 43.9922 1.76156 45.0019 3.00188 45.0019H34.5019C35.7422 45.0019 36.7519 43.9922 36.7519 42.7519V26.2519C36.7519 25.0116 35.7422 24.0019 34.5019 24.0019H20.925L22.9706 16.8441C23.1319 16.2778 23.2106 15.6947 23.2331 15.1088L27.0047 14.2707C27.0582 14.2575 27.1125 14.2519 27.1678 14.2519H30.7528V15.7519H47.25V15.75ZM36.75 14.25H35.25V5.25004H36.75V14.25ZM45.75 6.75004H43.5V8.25004H45.75V14.25H38.25V8.25004H42V6.75004H38.25V5.25004H45.75V6.75004ZM32.25 5.25004H33.75V14.25H32.25V5.25004ZM34.5 25.5C34.9134 25.5 35.25 25.8366 35.25 26.25V42.75C35.25 43.1635 34.9134 43.5 34.5 43.5H3C2.58656 43.5 2.25 43.1635 2.25 42.75V26.25C2.25 25.8366 2.58656 25.5 3 25.5H11.0053L11.4337 27H12.75V30H7.875C6.4275 30 5.25 31.1775 5.25 32.625C5.25 34.0725 6.4275 35.25 7.875 35.25H29.625C31.0725 35.25 32.25 34.0725 32.25 32.625C32.25 31.1775 31.0725 30 29.625 30H18.75V27H20.0653L20.4938 25.5H34.5ZM18.75 31.5H29.625C30.2456 31.5 30.75 32.0044 30.75 32.625C30.75 33.2457 30.2456 33.75 29.625 33.75H18.75V31.5ZM17.25 33.75H14.25V27H17.25V33.75ZM12.75 33.75H7.875C7.25437 33.75 6.75 33.2457 6.75 32.625C6.75 32.0044 7.25437 31.5 7.875 31.5H12.75V33.75ZM21.5259 16.4297L18.9347 25.5H12.5663L9.97408 16.4307C9.82595 15.9085 9.75 15.3703 9.75 14.8285C9.75 12.0732 11.7056 9.67129 14.4009 9.1191L14.3878 9.05817L18.8109 8.95035C19.0125 8.95035 19.2094 9.03004 19.351 9.16973L20.4516 10.2544L20.2209 10.3932C20.1037 10.4644 19.9706 10.501 19.8347 10.501H15C12.9328 10.501 11.25 12.1838 11.25 14.251C11.25 15.0779 11.9231 15.751 12.75 15.751H20.085C20.2491 15.751 20.4131 15.7332 20.5735 15.6975L21.7069 15.4453C21.6722 15.7772 21.6187 16.1072 21.5259 16.4297ZM27.165 12.75C27.001 12.75 26.8369 12.7679 26.6766 12.8035L20.2481 14.2313C20.1947 14.2435 20.1403 14.2491 20.085 14.2491H12.75C12.75 13.0088 13.7597 11.9991 15 11.9991H19.8347C20.2415 11.9991 20.6428 11.8885 20.9935 11.6775L24.3872 9.6413L23.6156 8.35505L21.7809 9.45567L20.4047 8.10003C19.9791 7.68097 19.4137 7.45035 18.795 7.45035H18.7941L13.8741 7.57035C13.5675 7.57035 13.2703 7.63034 12.9881 7.7494L8.31656 9.72191C8.00062 9.85597 7.71562 10.0622 7.49249 10.3191L3.66096 14.7235C3.50909 14.8988 3.28594 14.9991 3.05063 14.9991C2.61 14.9991 2.25096 14.6513 2.25096 14.2219V14.0091C2.25096 13.8488 2.30157 13.6932 2.39626 13.5619L5.72626 8.96815C5.77688 8.89878 5.83781 8.83879 5.90813 8.79098L12.8466 4.00504C12.976 3.91597 13.1278 3.8691 13.2975 3.8691L20.8987 3.7491C21.2944 3.7491 21.6844 3.85128 22.0275 4.0444L25.9153 6.23254C26.4825 6.55129 27.1275 6.72003 27.7791 6.72003H30.7519V12.7482H27.165V12.75Z" fill="#0D0D0D"></path><path d="M24.75 27H26.25V28.5H24.75V27Z" fill="#0D0D0D"></path><path d="M27.75 27H29.25V28.5H27.75V27Z" fill="#0D0D0D"></path><path d="M30.75 27H32.25V28.5H30.75V27Z" fill="#0D0D0D"></path></svg>