<svg width="48" height="48" viewBox="0 0 48 48" fill="none" xmlns="http://www.w3.org/2000/svg"><path d="M42.6015 12.6398V35.3609H5.39898V12.6398H42.6015ZM44.386 10.8398H3.6145V37.1609H44.387V10.8398H44.386Z" fill="#3EBF9F"></path><path d="M47.0001 12.801H45.4139V9.60098H42.2415V8.00098H47.0001V12.801Z" fill="#272727"></path><path d="M47.0001 40.0009H42.2415V38.4009H45.4139V35.2009H47.0001V40.0009Z" fill="#272727"></path><path d="M5.75862 40.0009H1V35.2009H2.58621V38.4009H5.75862V40.0009Z" fill="#272727"></path><path d="M2.58621 12.801H1V8.00098H5.75862V9.60098H2.58621V12.801Z" fill="#272727"></path><path d="M7.34473 14.401H8.93093V33.601H7.34473V14.401Z" fill="#272727"></path><path d="M10.5173 14.401H12.1035V30.401H10.5173V14.401Z" fill="#272727"></path><path d="M10.5173 32.001H12.1035V33.601H10.5173V32.001Z" fill="#272727"></path><path d="M13.6899 14.401H15.2761V30.401H13.6899V14.401Z" fill="#272727"></path><path d="M13.6899 32.001H15.2761V33.601H13.6899V32.001Z" fill="#272727"></path><path d="M16.8623 14.401H18.4485V30.401H16.8623V14.401Z" fill="#272727"></path><path d="M16.8623 32.001H18.4485V33.601H16.8623V32.001Z" fill="#272727"></path><path d="M20.0344 14.401H21.6206V30.401H20.0344V14.401Z" fill="#272727"></path><path d="M20.0344 32.001H21.6206V33.601H20.0344V32.001Z" fill="#272727"></path><path d="M23.2068 14.401H24.793V30.401H23.2068V14.401Z" fill="#272727"></path><path d="M23.2068 32.001H24.793V33.601H23.2068V32.001Z" fill="#272727"></path><path d="M26.3794 14.401H27.9656V30.401H26.3794V14.401Z" fill="#272727"></path><path d="M26.3794 32.001H27.9656V33.601H26.3794V32.001Z" fill="#272727"></path><path d="M29.5515 14.401H31.1377V30.401H29.5515V14.401Z" fill="#272727"></path><path d="M29.5515 32.001H31.1377V33.601H29.5515V32.001Z" fill="#272727"></path><path d="M32.7241 14.401H34.3103V30.401H32.7241V14.401Z" fill="#272727"></path><path d="M32.7241 32.001H34.3103V33.601H32.7241V32.001Z" fill="#272727"></path><path d="M39.0691 14.401H40.6553V33.601H39.0691V14.401Z" fill="#272727"></path><path d="M35.8965 14.401H37.4827V30.401H35.8965V14.401Z" fill="#272727"></path><path d="M35.8965 32.001H37.4827V33.601H35.8965V32.001Z" fill="#272727"></path></svg>